<svg width="352" height="68" viewBox="0 0 352 68" fill="none" xmlns="http://www.w3.org/2000/svg">
<path d="M351 33.9995C351 35.9699 349.971 38.0167 347.738 40.1245C345.505 42.2323 342.157 44.313 337.754 46.3242C328.953 50.3439 316.155 53.989 300.261 57.0593C268.491 63.1967 224.557 66.9995 176 66.9995C127.443 66.9995 83.5092 63.1967 51.7389 57.0593C35.8455 53.989 23.0473 50.3439 14.2464 46.3242C9.84292 44.313 6.49482 42.2323 4.26217 40.1245C2.02944 38.0167 1 35.9699 1 33.9995C1 32.0291 2.02944 29.9823 4.26217 27.8745C6.49482 25.7667 9.84292 23.686 14.2464 21.6748C23.0473 17.6551 35.8455 14.01 51.7389 10.9397C83.5092 4.80228 127.443 0.999512 176 0.999512C224.557 0.999512 268.491 4.80228 300.261 10.9397C316.155 14.01 328.953 17.6551 337.754 21.6748C342.157 23.686 345.505 25.7667 347.738 27.8745C349.971 29.9823 351 32.0291 351 33.9995Z" stroke="url(#paint0_linear_43_6923)" stroke-width="2"/>
<defs>
<linearGradient id="paint0_linear_43_6923" x1="176" y1="27.1995" x2="176" y2="67.9995" gradientUnits="userSpaceOnUse">
<stop stop-opacity="0"/>
<stop offset="1" stop-color="#2363F6"/>
</linearGradient>
</defs>
</svg>
